<svg xmlns="http://www.w3.org/2000/svg" width="34.618" height="1211.311" viewBox="0 0 34.618 1211.311">
  <g id="Group_16" data-name="Group 16" transform="translate(-690.15 -4556.101)">
    <path id="Path_8" data-name="Path 8" d="M4186.03,3330.1c0,30.215,27.738,33.683,0,120.861s0,120.86,0,120.86" transform="translate(-3481 1226)" fill="none" stroke="#2e2e3a" stroke-width="5" stroke-dasharray="10 11" opacity="0.65"/>
    <path id="Path_8-2" data-name="Path 8" d="M4186.03,3330.1c13.291,30.808,27.738,33.683,0,120.861s0,120.86,0,120.86" transform="translate(-3481 1468)" fill="none" stroke="#2e2e3a" stroke-width="5" stroke-dasharray="10 11" opacity="0.65"/>
    <path id="Path_8-3" data-name="Path 8" d="M4186.03,3328.1c13.835,29.318,27.738,35.681,0,122.858s0,120.86,0,120.86" transform="translate(-3481 1712)" fill="none" stroke="#2e2e3a" stroke-width="5" stroke-dasharray="10 11" opacity="0.65"/>
    <path id="Path_10" data-name="Path 10" d="M4180.571,3329.253c6.919,25.854,33.2,34.531,5.459,121.708s0,120.86,0,120.86" transform="translate(-3477 1952)" fill="none" stroke="#2e2e3a" stroke-width="5" stroke-dasharray="10 11" opacity="0.65"/>
    <path id="Path_13" data-name="Path 13" d="M4186.03,3330.1c11.291,29.706,27.738,33.683,0,120.861s0,120.86,0,120.86" transform="translate(-3479 2194)" fill="none" stroke="#2e2e3a" stroke-width="5" stroke-dasharray="10 11" opacity="0.65"/>
  </g>
</svg>
